Coordinates
version=1
nRows=9
nColumns=36
inDegrees=yes

Units are S.I. units (second, meters, Newtons, ...)
If the header above contains a line with 'inDegrees', this indicates whether rotational values are in degrees (yes) or radians (no).

endheader
time	pelvis_tilt	pelvis_list	pelvis_rotation	pelvis_tx	pelvis_ty	pelvis_tz	hip_flexion_r	hip_adduction_r	hip_rotation_r	knee_angle_r	knee_angle_r_beta	ankle_angle_r	subtalar_angle_r	mtp_angle_r	hip_flexion_l	hip_adduction_l	hip_rotation_l	knee_angle_l	knee_angle_l_beta	ankle_angle_l	subtalar_angle_l	mtp_angle_l	lumbar_extension	lumbar_bending	lumbar_rotation	arm_flex_r	arm_add_r	arm_rot_r	elbow_flex_r	pro_sup_r	arm_flex_l	arm_add_l	arm_rot_l	elbow_flex_l	pro_sup_l
     12.31666670	     -2.24432510	      0.73824453	      5.39635560	      0.37926151	      0.88291667	     -0.04406193	     -5.20706341	     -6.62994418	    -15.53887164	      0.16637940	      0.00290387	      8.72441236	     -1.82067558	     -7.49999987	     -0.86742686	     -7.84399460	     -6.03810800	      0.82746877	      0.01444205	      7.28436662	     11.52057507	     -7.49999987	      1.04563681	      3.08809544	     -3.93746420	     29.65953756	      5.52651767	     63.43268724	    120.32177948	     86.93894805	     40.18026939	      7.37871062	     70.31274840	    124.21200928	     59.48530045
     12.33333330	     -2.24095785	      0.73725886	      5.38308709	      0.38006453	      0.88321424	     -0.03854230	     -5.12855121	     -6.61986998	    -15.55429632	      0.16556827	      0.00288971	      8.77054843	     -1.83006044	     -7.49999987	     -0.82863136	     -7.85616861	     -6.02054226	      0.82828899	      0.01445637	      7.28877406	     11.52331008	     -7.49999987	      0.97086772	      3.08050463	     -3.95070150	     29.66817755	      5.53116441	     63.42474273	    120.32051895	     86.94558135	     40.20255272	      7.37415323	     70.29514958	    124.20061406	     59.48338978
     12.35000000	     -2.24877223	      0.71363819	      5.53404750	      0.37939205	      0.88839683	     -0.04417965	     -5.08776172	     -6.64030737	    -15.89671021	      0.16670187	      0.00290950	      8.96007542	     -1.31947378	     -7.49999987	     -0.66392961	     -7.82517364	     -5.77975116	      0.87504979	      0.01527250	      7.26087572	     11.62003622	     -7.49999987	      0.80598608	      3.11207278	     -4.27902876	     29.37670558	      5.59492390	     63.32294893	    120.52189666	     90.23179578	     40.24804955	      7.43402501	     70.18609691	    124.09473300	     59.19843586
     12.36666670	     -2.22702502	      0.73134523	      5.50229781	      0.37905053	      0.88857971	     -0.04419028	     -5.07166485	     -6.73925655	    -15.75869618	      0.16648097	      0.00290564	      8.65080918	     -1.72092677	     -7.49999987	     -0.64124302	     -7.72892536	     -5.71420057	      0.87472728	      0.01526687	      7.24455959	     11.38973535	     -7.49999987	      0.67889866	      3.16766665	     -4.52621677	     29.29883262	      5.59821272	     63.59454754	    120.62930705	     87.66585281	     40.17135339	      7.34992181	     70.16824703	    124.11792884	     59.37650911
     12.38333330	     -2.73257720	      0.67054376	      5.66509455	      0.38468699	      0.88554083	     -0.04161474	     -4.61759819	     -6.70830712	    -15.87383604	      0.16785603	      0.00292964	      8.43702477	     -1.85272020	     -7.49999987	     -0.08560494	     -7.74018973	     -5.56025138	      0.95875016	      0.01673335	      7.43076086	     11.56366808	     -7.49999987	      1.55932667	      3.14832996	     -4.61248114	     28.74634980	      5.61025180	     63.67201779	    120.74252243	     86.57590630	     39.57910007	      7.42508580	     70.33018189	    124.25095765	     59.45433804
     12.40000000	     -2.15677027	      0.74028665	      5.60612927	      0.37440794	      0.88564547	     -0.04055022	     -5.13673984	     -6.71618950	    -15.85035624	      0.16619818	      0.00290071	      8.70616275	     -1.51330208	     -7.49999987	     -0.65572760	     -7.71490444	     -5.70110188	      0.93465915	      0.01631288	      7.24114485	     11.31866724	     -7.49999987	      0.51765414	      3.13548115	     -4.41705599	     29.38941885	      5.90949740	     63.51389757	    120.57681793	     86.16509190	     40.19359370	      7.37010799	     70.25290958	    124.36277853	     59.47783978
     12.41666670	     -2.14403367	      0.74671547	      5.68291464	      0.38047061	      0.88373192	     -0.03830819	     -5.17701913	     -6.63589651	    -15.77203519	      0.16394934	      0.00286146	      8.76272171	     -1.44584387	     -7.49999987	     -0.62628753	     -7.79969144	     -5.63123288	      1.00879638	      0.01760682	      7.16063524	     11.38269282	     -7.49999987	      0.54940651	      2.98736319	     -4.29905786	     29.51303538	      6.03222294	     63.42681676	    120.54210682	     86.21439755	     40.23311472	      7.32385806	     70.22361423	    124.39517850	     59.47390806
     12.43333330	     -2.08267718	      0.79457427	      5.79491954	      0.38475249	      0.88661776	     -0.04201386	     -5.37907584	     -6.63627608	    -15.86912212	      0.16477030	      0.00287578	      8.91704471	     -1.08118261	     -7.49999987	     -0.76460972	     -7.83083264	     -5.67193146	      1.06345687	      0.01856082	      7.14339737	     11.55642283	     -7.49999987	      0.62074918	      2.97572212	     -4.33761386	     29.36396418	      6.13798760	     63.23746288	    120.30111270	     85.16539715	     40.02990459	      7.20532305	     70.17502101	    124.58938807	     59.54314782
     12.45000000	     -2.00797558	      0.82598660	      5.93236647	      0.38504949	      0.88633694	     -0.04195442	     -5.61057459	     -6.63384329	    -15.97599599	      0.16271351	      0.00283989	      9.14968725	     -0.86000323	     -7.49999987	     -0.90557695	     -7.86509075	     -5.52735660	      1.12620126	      0.01965592	      7.26281411	     11.61688098	     -7.49999987	      0.68619457	      2.91167358	     -4.44627267	     29.08058287	      6.18701805	     63.35690810	    120.24054102	     83.59635693	     39.79726080	      7.18795532	     70.23769121	    124.64896298	     59.67131202
